<svg xmlns="http://www.w3.org/2000/svg" xmlns:xlink="http://www.w3.org/1999/xlink" width="230" height="150" viewBox="0 0 230 150">
  <defs>
    <clipPath id="clip-path">
      <rect id="Rectangle_6143" data-name="Rectangle 6143" width="210.364" height="144.904" fill="none"/>
    </clipPath>
  </defs>
  <g id="Group_32859" data-name="Group 32859" transform="translate(-990 -1483)">
    <rect id="Rectangle_6261" data-name="Rectangle 6261" width="230" height="150" transform="translate(990 1483)" fill="none"/>
    <g id="Group_32564" data-name="Group 32564" transform="translate(1000 1488)">
      <g id="Group_32561" data-name="Group 32561" clip-path="url(#clip-path)">
        <path id="Path_19478" data-name="Path 19478" d="M223.443,564.073l-17.931.1s-6.582-.229-9.162,1.58-5.205,5.007-5.778,7.393-.006,8.542-.006,8.542l1.533,32.649h26.347s-5.441-7.748-5.632-10.994,10.819-34.62,10.882-35-.255-4.264-.255-4.264" transform="translate(-158.471 -469.687)" fill="#fff"/>
        <path id="Path_19479" data-name="Path 19479" d="M190.07,613.852a.382.382,0,0,1-.382-.367l-1.527-38.277a12.023,12.023,0,0,1,12-12.021h20.782a.382.382,0,0,1,0,.764h-20.78a11.256,11.256,0,0,0-11.243,11.243l1.527,38.262a.383.383,0,0,1-.367.4Z" transform="translate(-156.676 -468.948)" fill="#2e2e2e"/>
        <path id="Path_19480" data-name="Path 19480" d="M211.441,613.852a.382.382,0,0,1-.382-.367l-1.527-38.277a12.023,12.023,0,0,1,12.005-12.021h14.851a.382.382,0,0,1,0,.764H221.539A11.256,11.256,0,0,0,210.3,575.192l1.527,38.262a.383.383,0,0,1-.367.4Z" transform="translate(-174.471 -468.948)" fill="#2e2e2e"/>
        <path id="Path_19481" data-name="Path 19481" d="M292.723,69.39a21.542,21.542,0,1,1,21.4-24,.382.382,0,0,1-.336.423.387.387,0,0,1-.423-.336,20.765,20.765,0,1,0-.863,8.756.382.382,0,0,1,.726.234,21.479,21.479,0,0,1-20.5,14.923" transform="translate(-225.804 -21.904)" fill="#2e2e2e"/>
        <path id="Path_19482" data-name="Path 19482" d="M504.061,119.29l-.374-.33c-4.056-3.577-4.144-3.708-4.176-3.758a.382.382,0,0,1,.617-.45c.19.2,2.223,2.008,3.692,3.305l2.213-4.472a.382.382,0,0,1,.685.339Z" transform="translate(-415.875 -94.403)" fill="#2e2e2e"/>
        <path id="Path_19483" data-name="Path 19483" d="M332.651,138.5h-5.9v-.878l2.366-2.378a17.281,17.281,0,0,0,1.425-1.56,3.958,3.958,0,0,0,.516-.91,2.6,2.6,0,0,0,.172-.952,1.51,1.51,0,0,0-.436-1.14,1.672,1.672,0,0,0-1.21-.421,3.037,3.037,0,0,0-1.06.184,4.215,4.215,0,0,0-1.116.67l-.541-.694a4.142,4.142,0,0,1,2.7-1.032,2.855,2.855,0,0,1,1.985.648,2.231,2.231,0,0,1,.719,1.742,3.359,3.359,0,0,1-.479,1.689A10.693,10.693,0,0,1,330,135.58l-1.97,1.92v.049h4.621Z" transform="translate(-272.072 -107.737)" fill="#2e2e2e"/>
        <path id="Path_19484" data-name="Path 19484" d="M374.331,136.831H373V138.9h-.977v-2.064h-4.369v-.891l4.264-6.077H373v6.04h1.333Zm-2.311-.928v-2.987q0-.878.062-1.985h-.049a9.224,9.224,0,0,1-.553.977l-2.808,3.994Z" transform="translate(-306.133 -108.133)" fill="#2e2e2e"/>
        <path id="Path_19485" data-name="Path 19485" d="M414.179,130.157l-3.349,8.983h-1.02l3.349-8.983Z" transform="translate(-341.236 -108.378)" fill="#2e2e2e"/>
        <path id="Path_19486" data-name="Path 19486" d="M441.314,139.141l3.724-8.043h-4.9v-.94h5.979v.817l-3.674,8.166Z" transform="translate(-366.491 -108.378)" fill="#2e2e2e"/>
        <path id="Path_19487" data-name="Path 19487" d="M579.606,488.443h-.023a.23.23,0,0,1-.205-.251c.132-1.3.3-2.573.5-3.8a.224.224,0,0,1,.263-.19.229.229,0,0,1,.189.263c-.2,1.214-.363,2.483-.494,3.769a.23.23,0,0,1-.228.206m1.228-7.527a.2.2,0,0,1-.051-.006.228.228,0,0,1-.172-.275c.294-1.272.632-2.515,1-3.7a.225.225,0,0,1,.287-.15.229.229,0,0,1,.15.287c-.368,1.172-.7,2.4-.994,3.664a.229.229,0,0,1-.223.178M619.1,477.5a9.016,9.016,0,0,1-2.378-.326.229.229,0,0,1,.121-.442,8.336,8.336,0,0,0,3.679.183.229.229,0,1,1,.08.45,8.5,8.5,0,0,1-1.5.134m4.957-1.591a.229.229,0,0,1-.129-.418,12.692,12.692,0,0,0,2.715-2.566.229.229,0,1,1,.358.286,13.176,13.176,0,0,1-2.814,2.658.229.229,0,0,1-.129.039m-10.691-.384a.224.224,0,0,1-.133-.043,14.793,14.793,0,0,1-2.815-2.653.229.229,0,0,1,.354-.291,14.39,14.39,0,0,0,2.726,2.571.229.229,0,0,1-.133.415m-30.24-1.882a.223.223,0,0,1-.087-.017.229.229,0,0,1-.125-.3c.5-1.2,1.046-2.371,1.633-3.472a.229.229,0,0,1,.4.216c-.58,1.087-1.123,2.242-1.614,3.431a.228.228,0,0,1-.212.142m45.709-3.576a.235.235,0,0,1-.084-.016.23.23,0,0,1-.129-.3,7.683,7.683,0,0,0,.523-2.847q0-.4-.036-.8a.229.229,0,1,1,.457-.04q.038.422.037.839a8.143,8.143,0,0,1-.555,3.015.23.23,0,0,1-.213.145m-20.326-.344a.229.229,0,0,1-.2-.124,20.75,20.75,0,0,1-1.434-3.579.228.228,0,0,1,.154-.285.225.225,0,0,1,.285.154,20.3,20.3,0,0,0,1.4,3.5.229.229,0,0,1-.2.334m-21.786-2.794a.229.229,0,0,1-.189-.359,32.2,32.2,0,0,1,2.353-3.035.229.229,0,1,1,.345.3,31.783,31.783,0,0,0-2.32,2.992.229.229,0,0,1-.189.1m41.619-4.279a.229.229,0,0,1-.209-.134,14.349,14.349,0,0,0-1.99-3.176.229.229,0,0,1,.354-.291,14.8,14.8,0,0,1,2.054,3.278.23.23,0,0,1-.114.3.235.235,0,0,1-.095.02m-22.012-.2a.229.229,0,0,1-.227-.2,22.709,22.709,0,0,1-.148-2.609q0-.616.033-1.241a.222.222,0,0,1,.242-.216.23.23,0,0,1,.216.242q-.034.612-.033,1.216a22.288,22.288,0,0,0,.145,2.557.229.229,0,0,1-.2.254h-.026m-14.578-1.231a.229.229,0,0,1-.151-.4,29.512,29.512,0,0,1,3.043-2.348.229.229,0,0,1,.255.38,29.154,29.154,0,0,0-3,2.311.225.225,0,0,1-.151.057m6.318-4.249a.229.229,0,0,1-.1-.434,30.851,30.851,0,0,1,3.541-1.5.229.229,0,1,1,.152.433,30.287,30.287,0,0,0-3.489,1.473.228.228,0,0,1-.1.024m25.5-.179a.226.226,0,0,1-.138-.046,15.905,15.905,0,0,0-3.244-1.892.229.229,0,1,1,.182-.421,16.376,16.376,0,0,1,3.337,1.947.229.229,0,0,1-.138.412m-16.843-1.933a.22.22,0,0,1-.048,0,.229.229,0,0,1-.175-.272q.045-.208.094-.416-.653.121-1.294.266a.229.229,0,1,1-.1-.447q.749-.168,1.516-.306a25.6,25.6,0,0,1,.889-2.784.229.229,0,0,1,.428.164,25.111,25.111,0,0,0-.821,2.535c.587-.1,1.181-.18,1.776-.247a.223.223,0,0,1,.254.2.229.229,0,0,1-.2.253c-.654.075-1.306.167-1.952.277-.049.2-.1.4-.139.6a.229.229,0,0,1-.224.18m9.9-1.072a.22.22,0,0,1-.038,0,15.663,15.663,0,0,0-2.248-.215q-.481-.012-.961-.012h-.556a.229.229,0,0,1,0-.458h.561c.325,0,.649,0,.973.012a16.265,16.265,0,0,1,2.313.222.229.229,0,0,1-.038.455m-7.192-6.038a.229.229,0,0,1-.2-.34,30.181,30.181,0,0,1,2.08-3.234.229.229,0,1,1,.368.272,29.853,29.853,0,0,0-2.047,3.184.229.229,0,0,1-.2.118m4.5-6.148a.229.229,0,0,1-.168-.385c.841-.908,1.756-1.8,2.722-2.658a.229.229,0,0,1,.3.343c-.954.846-1.86,1.729-2.691,2.627a.228.228,0,0,1-.168.073" transform="translate(-482.43 -365.126)" fill="#2e2e2e"/>
        <path id="Path_19488" data-name="Path 19488" d="M1031.349,401.909h-7.387a4.55,4.55,0,0,0-4.55,4.55v5.428a4.55,4.55,0,0,0,4.55,4.55h1.916l-.716,5.224a.362.362,0,0,0,.557.352l7.289-5.575h15.741a4.55,4.55,0,0,0,4.549-4.549V406.46a4.55,4.55,0,0,0-4.549-4.55h-17.4Z" transform="translate(-848.833 -334.657)" fill="#fff"/>
        <path id="Path_19489" data-name="Path 19489" d="M1023.611,421.491a.723.723,0,0,1-.39-.114.737.737,0,0,1-.339-.731l.656-4.789h-1.478a4.938,4.938,0,0,1-4.932-4.932V405.5a4.938,4.938,0,0,1,4.932-4.932h7.387a.382.382,0,0,1,0,.764h-7.387a4.173,4.173,0,0,0-4.168,4.168v5.427a4.173,4.173,0,0,0,4.168,4.168h2.354l-.775,5.657,7.339-5.657h15.87a4.172,4.172,0,0,0,4.167-4.168V405.5a4.172,4.172,0,0,0-4.167-4.168H1035.29a.382.382,0,0,1,0-.764h11.558a4.937,4.937,0,0,1,4.931,4.932v5.427a4.937,4.937,0,0,1-4.931,4.932h-15.612l-7.187,5.5a.79.79,0,0,1-.437.137" transform="translate(-846.932 -333.539)" fill="#2e2e2e"/>
        <path id="Path_19490" data-name="Path 19490" d="M1063.025,439.762a1.862,1.862,0,1,1,1.862-1.862,1.862,1.862,0,0,1-1.862,1.862m0-2.961a1.1,1.1,0,1,0,1.1,1.1,1.1,1.1,0,0,0-1.1-1.1" transform="translate(-883.598 -363.076)" fill="#2e2e2e"/>
        <path id="Path_19491" data-name="Path 19491" d="M1110.968,439.762a1.862,1.862,0,1,1,1.862-1.862,1.862,1.862,0,0,1-1.862,1.862m0-2.961a1.1,1.1,0,1,0,1.1,1.1,1.1,1.1,0,0,0-1.1-1.1" transform="translate(-923.519 -363.076)" fill="#2e2e2e"/>
        <path id="Path_19492" data-name="Path 19492" d="M1159.665,439.762a1.862,1.862,0,1,1,1.862-1.862,1.862,1.862,0,0,1-1.862,1.862m0-2.961a1.1,1.1,0,1,0,1.1,1.1,1.1,1.1,0,0,0-1.1-1.1" transform="translate(-964.068 -363.076)" fill="#2e2e2e"/>
        <path id="Path_19493" data-name="Path 19493" d="M60.185,213.809A4.191,4.191,0,0,1,56,209.623V193.764a4.191,4.191,0,0,1,4.186-4.186H87.163a.382.382,0,0,1,0,.764H60.185a3.426,3.426,0,0,0-3.422,3.422v15.859a3.426,3.426,0,0,0,3.422,3.422.382.382,0,1,1,0,.764" transform="translate(-46.629 -157.856)" fill="#2e2e2e"/>
        <path id="Path_19495" data-name="Path 19495" d="M106.365,255.869V241.537a3.8,3.8,0,0,1,3.8-3.8h33.264a3.815,3.815,0,0,1,.779.081,3.788,3.788,0,0,0-3.325-1.99H107.624c-2.1,0-3.359,1.862-3.359,3.963l-.083,14.242a3.432,3.432,0,0,0,2.663,3.654,3.762,3.762,0,0,1-.48-1.814" transform="translate(-86.749 -196.364)" fill="#fff"/>
        <path id="Path_19496" data-name="Path 19496" d="M139.347,266.058a.519.519,0,0,1-.344-.131l-9.858-8.728H106.582a4.191,4.191,0,0,1-4.186-4.186V238.68a4.191,4.191,0,0,1,4.186-4.185H111.9a.382.382,0,0,1,0,.764h-5.322a3.426,3.426,0,0,0-3.422,3.422v14.333a3.427,3.427,0,0,0,3.422,3.422h22.851l9.492,8.4-2.026-8.4h2.947a3.427,3.427,0,0,0,3.422-3.422V238.68a3.426,3.426,0,0,0-3.422-3.422H119.468a.382.382,0,0,1,0-.764h20.378a4.191,4.191,0,0,1,4.186,4.185v14.333a4.191,4.191,0,0,1-4.186,4.186h-1.977l1.982,8.218a.52.52,0,0,1-.5.641" transform="translate(-85.262 -195.257)" fill="#2e2e2e"/>
        <path id="Path_19497" data-name="Path 19497" d="M143.359,282.841h-5.683a.382.382,0,1,1,0-.764h5.683a.382.382,0,1,1,0,.764" transform="translate(-114.321 -234.877)" fill="#2e2e2e"/>
        <path id="Path_19498" data-name="Path 19498" d="M218.311,282.841H200.163a.382.382,0,1,1,0-.764h18.149a.382.382,0,1,1,0,.764" transform="translate(-166.352 -234.877)" fill="#2e2e2e"/>
        <path id="Path_19499" data-name="Path 19499" d="M148.133,318.519H137.677a.382.382,0,1,1,0-.764h10.456a.382.382,0,0,1,0,.764" transform="translate(-114.321 -264.585)" fill="#2e2e2e"/>
        <path id="Path_19500" data-name="Path 19500" d="M232.175,318.519h-6.634a.382.382,0,0,1,0-.764h6.634a.382.382,0,0,1,0,.764" transform="translate(-187.483 -264.585)" fill="#2e2e2e"/>
        <path id="Path_19501" data-name="Path 19501" d="M710.047,143.4H701.3a.828.828,0,0,1-.827-.827v-8.75a.829.829,0,0,1,.827-.828h8.75a.829.829,0,0,1,.828.828v8.75a.829.829,0,0,1-.828.827m-8.75-9.641a.064.064,0,0,0-.063.064v8.75a.063.063,0,0,0,.063.063h8.75a.064.064,0,0,0,.064-.063v-8.75a.065.065,0,0,0-.064-.064Z" transform="translate(-583.26 -110.738)" fill="#2e2e2e"/>
        <path id="Path_19502" data-name="Path 19502" d="M715.47,128.453l-3.183-2.953a.382.382,0,1,1,.519-.559l2.545,2.361,6-8.459a.382.382,0,0,1,.624.442Z" transform="translate(-592.998 -98.823)" fill="#801c7d"/>
        <path id="Path_19503" data-name="Path 19503" d="M710.047,244.566H701.3a.829.829,0,0,1-.827-.827v-8.751a.829.829,0,0,1,.827-.827h8.75a.829.829,0,0,1,.828.827v8.751a.829.829,0,0,1-.828.827m-8.75-9.642a.063.063,0,0,0-.063.064v8.751a.064.064,0,0,0,.063.064h8.75a.064.064,0,0,0,.064-.064v-8.751a.064.064,0,0,0-.064-.064Z" transform="translate(-583.26 -194.979)" fill="#2e2e2e"/>
        <path id="Path_19504" data-name="Path 19504" d="M715.47,229.62l-3.183-2.953a.382.382,0,0,1,.519-.559l2.545,2.36,6-8.459a.382.382,0,1,1,.624.441Z" transform="translate(-592.998 -183.062)" fill="#801c7d"/>
        <path id="Path_19505" data-name="Path 19505" d="M710.047,345.734H701.3a.829.829,0,0,1-.827-.828v-8.75a.829.829,0,0,1,.827-.827h8.75a.829.829,0,0,1,.828.827v8.75a.829.829,0,0,1-.828.828m-8.75-9.641a.063.063,0,0,0-.063.063v8.75a.064.064,0,0,0,.063.064h8.75a.065.065,0,0,0,.064-.064v-8.75a.064.064,0,0,0-.064-.063Z" transform="translate(-583.26 -279.218)" fill="#2e2e2e"/>
        <path id="Path_19506" data-name="Path 19506" d="M715.47,330.784l-3.183-2.953a.382.382,0,1,1,.519-.559l2.545,2.361,6-8.459a.382.382,0,1,1,.624.442Z" transform="translate(-592.998 -267.297)" fill="#801c7d"/>
        <path id="Path_19507" data-name="Path 19507" d="M827.59,148.972H804.3a.382.382,0,1,1,0-.764h23.29a.382.382,0,1,1,0,.764" transform="translate(-669.397 -123.408)" fill="#2e2e2e"/>
        <path id="Path_19508" data-name="Path 19508" d="M817.536,172.933H804.3a.382.382,0,1,1,0-.764h13.238a.382.382,0,1,1,0,.764" transform="translate(-669.397 -143.36)" fill="#2e2e2e"/>
        <path id="Path_19509" data-name="Path 19509" d="M895.364,246.945h-9.673a.382.382,0,1,1,0-.764h9.673a.382.382,0,1,1,0,.764" transform="translate(-737.17 -204.987)" fill="#2e2e2e"/>
        <path id="Path_19510" data-name="Path 19510" d="M814.433,246.945H804.3a.382.382,0,1,1,0-.764h10.135a.382.382,0,1,1,0,.764" transform="translate(-669.397 -204.987)" fill="#2e2e2e"/>
        <path id="Path_19511" data-name="Path 19511" d="M822.5,270.906H804.3a.382.382,0,1,1,0-.764h18.2a.382.382,0,1,1,0,.764" transform="translate(-669.397 -224.939)" fill="#2e2e2e"/>
        <path id="Path_19512" data-name="Path 19512" d="M827.59,351.683H804.3a.382.382,0,1,1,0-.764h23.29a.382.382,0,1,1,0,.764" transform="translate(-669.397 -292.2)" fill="#2e2e2e"/>
        <path id="Path_19513" data-name="Path 19513" d="M817.536,375.644H804.3a.382.382,0,1,1,0-.764h13.238a.382.382,0,0,1,0,.764" transform="translate(-669.397 -312.151)" fill="#2e2e2e"/>
        <path id="Path_19514" data-name="Path 19514" d="M910.277,7.489,915.4,2.4a.07.07,0,0,0-.051-.118L899.833,2.9a.07.07,0,0,0-.048.119l11.111,11.4a.07.07,0,0,0,.118-.06l-.756-6.811a.07.07,0,0,1,.019-.059" transform="translate(-749.206 -1.899)" fill="#00a9e0"/>
        <path id="Path_19515" data-name="Path 19515" d="M911.369,11.542c-.024.342-.345,2.944-.345,2.944l-9.717-8.653L912.3,17.317Z" transform="translate(-750.492 -4.857)" fill="#fff"/>
        <path id="Path_19516" data-name="Path 19516" d="M909.044,12.921a.451.451,0,0,1-.317-.13L897.61,1.39a.452.452,0,0,1,.317-.767l3.964-.16a.378.378,0,0,1,.4.366.383.383,0,0,1-.366.4l-3.277.131,9.985,10.24-.677-6.094.149-.189L912.66.8l-6.247.25a.388.388,0,0,1-.4-.366.383.383,0,0,1,.366-.4L913.434,0a.431.431,0,0,1,.43.271.448.448,0,0,1-.092.5l-5.02,4.986.74,6.664a.451.451,0,0,1-.448.5m-.312-.428v.022ZM897.962,1.385h0m.189-.534.01.01-.01-.01" transform="translate(-747.305)" fill="#2e2e2e"/>
        <path id="Path_19517" data-name="Path 19517" d="M931.484,17.7a.384.384,0,0,1-.169-.039l-5.84-2.881a.382.382,0,0,1,.339-.685l5.84,2.881a.382.382,0,0,1-.169.724" transform="translate(-770.438 -11.705)" fill="#2e2e2e"/>
        <path id="Path_19518" data-name="Path 19518" d="M1004.645,82.94a.228.228,0,0,1-.144-.051c-1.018-.819-1.987-1.671-2.881-2.534a.229.229,0,1,1,.318-.33c.884.853,1.843,1.7,2.851,2.507a.229.229,0,0,1-.144.407m-5.469-5.312a.227.227,0,0,1-.176-.082,30.479,30.479,0,0,1-2.276-3.1.229.229,0,0,1,.386-.246,29.883,29.883,0,0,0,2.242,3.049.229.229,0,0,1-.176.376M995.1,71.2a.228.228,0,0,1-.209-.136,22.768,22.768,0,0,1-1.278-3.634.23.23,0,0,1,.166-.279.233.233,0,0,1,.279.166,22.42,22.42,0,0,0,1.251,3.56.228.228,0,0,1-.116.3.218.218,0,0,1-.093.02m12.87-6.546a9.493,9.493,0,0,1-3.419-.636.229.229,0,1,1,.163-.428,9,9,0,0,0,3.641.6c.136.022.233.094.238.22a.229.229,0,0,1-.22.238c-.135,0-.269.008-.4.008m-14.743-.814a.229.229,0,0,1-.229-.214c-.028-.433-.043-.876-.044-1.316a19.606,19.606,0,0,1,.165-2.538.227.227,0,0,1,.257-.2.23.23,0,0,1,.2.257,19.035,19.035,0,0,0-.162,2.477c0,.43.016.863.044,1.286a.23.23,0,0,1-.214.244Zm18.851-.008a.229.229,0,0,1-.079-.444,13.8,13.8,0,0,0,3.317-1.733.229.229,0,1,1,.269.371,14.253,14.253,0,0,1-3.428,1.791.226.226,0,0,1-.079.014m-10.741-1.688a.229.229,0,0,1-.14-.047,24.862,24.862,0,0,1-2.844-2.593.229.229,0,0,1,.331-.316,24.419,24.419,0,0,0,2.792,2.545.229.229,0,0,1-.139.411m16.779-2.778a.229.229,0,0,1-.189-.358,9.365,9.365,0,0,0,1.45-3.408.229.229,0,0,1,.449.093,9.824,9.824,0,0,1-1.52,3.573.229.229,0,0,1-.189.1M996,56.707a.226.226,0,0,1-.177-.083c-.36-.437-.718-.881-1.066-1.319q-.171.428-.322.864A.229.229,0,1,1,994,56.02q.2-.569.428-1.127c-.348-.44-.681-.867-.99-1.263a.23.23,0,0,1,.04-.322.233.233,0,0,1,.322.04c.262.338.542.7.834,1.067a19.155,19.155,0,0,1,.984-1.9.229.229,0,0,1,.394.233,18.736,18.736,0,0,0-1.056,2.072c.4.5.806,1.011,1.217,1.512a.229.229,0,0,1-.177.374m23.6-4.622a.229.229,0,0,1-.224-.183,9.059,9.059,0,0,0-1.463-3.4.229.229,0,1,1,.376-.263,9.526,9.526,0,0,1,1.536,3.567.229.229,0,0,1-.178.271.258.258,0,0,1-.046,0M991.278,50.7a.229.229,0,0,1-.181-.088c-.9-1.154-1.662-2.1-2.386-2.974a.229.229,0,0,1,.353-.292c.726.878,1.487,1.826,2.394,2.985a.229.229,0,0,1-.18.37m6.806-.9a.229.229,0,0,1-.169-.383,17.807,17.807,0,0,1,2.9-2.553.229.229,0,0,1,.264.374,17.366,17.366,0,0,0-2.821,2.487.228.228,0,0,1-.169.074m17.255-3.794a.228.228,0,0,1-.12-.034,10.068,10.068,0,0,0-3.472-1.313.229.229,0,1,1,.084-.45,10.542,10.542,0,0,1,3.628,1.372.229.229,0,0,1-.12.424m-11.044-.538a.229.229,0,0,1-.083-.442,14.679,14.679,0,0,1,3.75-.938.218.218,0,0,1,.253.2.228.228,0,0,1-.2.253,14.209,14.209,0,0,0-3.634.909.231.231,0,0,1-.084.016m-17.908-.634a.231.231,0,0,1-.169-.074c-.888-.973-1.778-1.889-2.649-2.724a.23.23,0,1,1,.318-.331c.878.842,1.776,1.766,2.67,2.746a.229.229,0,0,1-.169.383m-5.608-5.156a.225.225,0,0,1-.127-.038c-.968-.645-2.122-1.348-3.25-1.981a.229.229,0,1,1,.224-.4c1.137.639,2.3,1.349,3.279,2a.229.229,0,0,1-.127.42M974.1,35.97a.233.233,0,0,1-.091-.019,15.783,15.783,0,0,0-1.715-.643.229.229,0,0,1,.131-.439,16.308,16.308,0,0,1,1.765.661.229.229,0,0,1-.091.439" transform="translate(-809.467 -29.026)" fill="#2e2e2e"/>
        <path id="Path_19519" data-name="Path 19519" d="M148.126,489.64a1.074,1.074,0,1,1,1.072-1.074,1.074,1.074,0,0,1-1.072,1.074" transform="translate(-122.447 -405.921)" fill="#2e2e2e"/>
        <path id="Path_19520" data-name="Path 19520" d="M198.141,489.64a1.074,1.074,0,1,1,1.072-1.074,1.074,1.074,0,0,1-1.072,1.074" transform="translate(-164.093 -405.921)" fill="#2e2e2e"/>
        <path id="Path_19521" data-name="Path 19521" d="M248.153,489.64a1.074,1.074,0,1,1,1.072-1.074,1.074,1.074,0,0,1-1.072,1.074" transform="translate(-205.737 -405.921)" fill="#2e2e2e"/>
        <path id="Path_19522" data-name="Path 19522" d="M19.331,492.389H.382a.382.382,0,1,1,0-.764H19.331a.382.382,0,0,1,0,.764" transform="translate(0 -409.361)" fill="#2e2e2e"/>
        <path id="Path_19523" data-name="Path 19523" d="M908.3,439l-.057-.421a3.52,3.52,0,0,1,.076-1.541,4.033,4.033,0,0,1,.876-1.387,7.124,7.124,0,0,0,1.154-1.533,2.071,2.071,0,0,0,.128-1.13,1.537,1.537,0,0,0-.679-1.16,2.232,2.232,0,0,0-1.53-.232,5.066,5.066,0,0,0-1.181.308,6.535,6.535,0,0,0-1.27.71l-.6-.991a6.629,6.629,0,0,1,2.978-1.192,3.408,3.408,0,0,1,2.418.417,2.643,2.643,0,0,1,1.109,1.955,3.03,3.03,0,0,1-.016,1.024,2.981,2.981,0,0,1-.336.88,10.87,10.87,0,0,1-1.11,1.419,4.858,4.858,0,0,0-.89,1.258,2.409,2.409,0,0,0-.092,1.221l.035.258Zm-.067,2.37q-.145-1.061.792-1.19a.9.9,0,0,1,.735.179,1.149,1.149,0,0,1,.354.754,1.126,1.126,0,0,1-.144.81.9.9,0,0,1-.656.372.959.959,0,0,1-.705-.155,1.07,1.07,0,0,1-.375-.771" transform="translate(-753.741 -358.369)" fill="#2e2e2e"/>
        <path id="Path_19524" data-name="Path 19524" d="M1013.828,307.829l.176-.3a2.907,2.907,0,0,1,.829-.965,3.326,3.326,0,0,1,1.273-.461,5.875,5.875,0,0,0,1.528-.415,1.708,1.708,0,0,0,.655-.672,1.268,1.268,0,0,0,.144-1.1,1.842,1.842,0,0,0-.88-.925,4.179,4.179,0,0,0-.926-.4,5.407,5.407,0,0,0-1.187-.18l.107-.952a5.469,5.469,0,0,1,2.544.729,2.813,2.813,0,0,1,1.365,1.495,2.181,2.181,0,0,1-.267,1.835,2.5,2.5,0,0,1-.528.659,2.462,2.462,0,0,1-.665.4,8.949,8.949,0,0,1-1.441.363,4.009,4.009,0,0,0-1.216.37,1.989,1.989,0,0,0-.678.749l-.107.186Zm-1.242,1.511q.443-.765,1.118-.374a.739.739,0,0,1,.389.488.948.948,0,0,1-.151.671.927.927,0,0,1-.5.455.739.739,0,0,1-.616-.09.791.791,0,0,1-.381-.458.883.883,0,0,1,.146-.692" transform="translate(-843.008 -251.016)" fill="#2e2e2e"/>
        <path id="Path_19525" data-name="Path 19525" d="M819.419,586.888h7.756a2.047,2.047,0,0,0,1.951-1.427l11.682-36.776a2.047,2.047,0,0,0-1.951-2.666H786.64a2.047,2.047,0,0,0-1.951,1.427l-11.682,36.776a2.047,2.047,0,0,0,1.951,2.666H819.42Z" transform="translate(-643.578 -454.653)" fill="#801c7d"/>
        <path id="Path_19526" data-name="Path 19526" d="M774.668,587.157l11.9-37.375a2.047,2.047,0,0,1,1.951-1.427h52.1c.184-1.209-.668-1.871-1.941-1.871l-51.517-.1c-.892,0-2.171.463-2.441,1.313L773.1,584.254c-.419,1.32-.416,2.621.969,2.621l.583.346c.016-.106-.017.042.016-.064" transform="translate(-643.534 -454.961)" fill="#fff"/>
        <path id="Path_19527" data-name="Path 19527" d="M825.271,586.31h-7.755a.382.382,0,0,1,0-.764h7.755a1.66,1.66,0,0,0,1.587-1.161L838.54,547.61a1.664,1.664,0,0,0-1.586-2.169H784.736a1.659,1.659,0,0,0-1.587,1.16l-11.682,36.776a1.665,1.665,0,0,0,1.586,2.169h28.162a.382.382,0,0,1,0,.764H773.053a2.428,2.428,0,0,1-2.314-3.164l11.682-36.776a2.421,2.421,0,0,1,2.315-1.693h52.217a2.427,2.427,0,0,1,2.314,3.164l-11.682,36.775a2.42,2.42,0,0,1-2.315,1.694" transform="translate(-641.674 -453.536)" fill="#2e2e2e"/>
        <path id="Path_19528" data-name="Path 19528" d="M845.058,712.341v-1.909a1.145,1.145,0,0,1,1.144-1.145c2.547,0,8.771-.013,12.729-.1,4.2-.088,5.309-3.6,4.264-9.128-.807-4.265-3.041-17.1-3.041-17.1a.674.674,0,0,1,.664-.792h14.8a.674.674,0,0,1,.664.556l3.985,22.406a6.173,6.173,0,0,1-6.077,7.254h-8.826Z" transform="translate(-703.654 -568.027)" fill="#fff"/>
        <path id="Path_19529" data-name="Path 19529" d="M872.285,711.812H843.158a.382.382,0,0,1-.382-.382c0-.008,0-.017,0-.025v-1.933a1.529,1.529,0,0,1,1.526-1.527c3.137,0,8.96-.016,12.721-.1a4,4,0,0,0,3.2-1.342c1.123-1.385,1.359-3.852.7-7.333-.8-4.219-3.019-16.973-3.042-17.1a1.056,1.056,0,0,1,1.04-1.24h14.8a1.055,1.055,0,0,1,1.04.871l3.985,22.406a6.555,6.555,0,0,1-6.453,7.7m-28.745-.764h28.745a5.791,5.791,0,0,0,5.7-6.8L874,681.837a.293.293,0,0,0-.288-.242h-14.8a.293.293,0,0,0-.288.344c.022.129,2.244,12.877,3.04,17.091.7,3.711.414,6.388-.858,7.955a4.729,4.729,0,0,1-3.772,1.625c-3.768.079-9.6.1-12.738.1a.763.763,0,0,0-.762.764Z" transform="translate(-701.754 -566.908)" fill="#2e2e2e"/>
        <path id="Path_19530" data-name="Path 19530" d="M267.409,862.174H91.253a.382.382,0,0,1,0-.764H267.409a.382.382,0,0,1,0,.764" transform="translate(-75.666 -717.27)" fill="#2e2e2e"/>
        <path id="Path_19531" data-name="Path 19531" d="M477.531,363.113l-11.812-12.792s-.8-17.182,1.984-21.638,9.025-9.737,13.544-9.292,9.61,2.864,9.292,7.446-2.482,14.064-2.482,16.228-2.737,11.583-4.709,13.619-5.816,6.428-5.816,6.428" transform="translate(-387.701 -265.926)" fill="#fff"/>
        <path id="Path_19532" data-name="Path 19532" d="M303.811,510.447s-10.893,3.947-13.179,6.246-5.436,4.971-7.2,8.551-6.157,10.787-8.4,15.942a51.881,51.881,0,0,0-3.818,11.932c-.334,2.387-1.1,7.637-.764,10.119s2.386,3.723,4.1,4.582,9.639,1.434,10.738,1.409,20.239,0,20.239,0l9.45-.121,28.256-.08s-3.341-26.389-4.4-30.45-4.146-14.5-8.809-18.421c-3.846-3.155-8.047-6.416-11.356-7.363-.255,1.6-3.9,9.49-3.9,9.49Z" transform="translate(-225.125 -425.034)" fill="#00a9e0"/>
        <path id="Path_19533" data-name="Path 19533" d="M271.271,561.634c-.334-2.482.382-7.636.891-9.991.859-3.978,2.091-6.988,4.117-12.232a111.992,111.992,0,0,1,8.07-15.738,24.92,24.92,0,0,1,7.319-7.788,72.243,72.243,0,0,1,11.737-5.966l-1.256-1.511s-11.178,4.132-13.464,6.43-5.576,5.335-7.342,8.915-5.865,9.853-8.108,15.008a52.352,52.352,0,0,0-3.76,12.254c-.334,2.386-1.349,7.279-1.015,9.761a6.3,6.3,0,0,0,3.59,4.905,13.1,13.1,0,0,0,2.961.727c-1.549-.847-3.446-2.6-3.739-4.773" transform="translate(-223.482 -423.336)" fill="#fff"/>
        <path id="Path_19534" data-name="Path 19534" d="M411.745,289.187a23.525,23.525,0,0,1-3.277,3.532c-1.336.986-5.155,4.3-5.155,4.3s-1.941,9.61-1.909,9.737-.1,6.2-.35,7.414-1.5,4.55-1.5,4.55-2.554.215-7.549,3.3-5.529,2.935-5.529,2.935l-.8-.1s-.955-4.041.827-6.2,4.272-4.038,4.777-5.694-.086-6.306.632-8.479A21.133,21.133,0,0,1,394.3,299.4a23.845,23.845,0,0,0,2.768-5.763c.7-2.287,2.323-7.664,4.614-9.542a15.507,15.507,0,0,1,8.591-3.612c3.437-.288,10.087,1.543,11.583,2.816a6.863,6.863,0,0,1,2.2,3.914,13.657,13.657,0,0,1,.318,2.546s1.146,5.091.923,6.873-.7,7.287-.8,8.751.727,5.155.7,6.555a14.064,14.064,0,0,1-.538,4.455c-.509,1.368-1.374,1.935-1.146,3.055s.637,2.228.891,3.532.509,3.436-.127,4.1c-.636-1.018-8.091-5.346-8.188-5.441s-2.281-1.209-2.281-1.209-.414-4.455.541-5.537c3.182-1.177,4.741-1.559,5.887-4.041s1.758-9.453,1.9-10.247.46-5.581.426-6.834a7.945,7.945,0,0,0-.923-2.87,12.39,12.39,0,0,1-4.43.079,18.585,18.585,0,0,1-4.1-1.161,9.081,9.081,0,0,0-1.368-.637" transform="translate(-320.935 -233.525)" fill="#2e2e2e"/>
        <path id="Path_19535" data-name="Path 19535" d="M387.563,320.667a50.213,50.213,0,0,0,4.464-5.724c1.8-3.25.6-6.786,1.04-9.027a10.832,10.832,0,0,1,1.979-4.53,14.931,14.931,0,0,0,2.835-5.507c.466-2.346,2.223-7.668,4.312-9.769,2.8-2.819,5.041-3.207,8.477-3.5,3.188-.268,9.76-.449,11.665,2.143-.3-.464-.821-.679-1.331-1.114-1.5-1.273-8.067-2.625-11.5-2.337a15.312,15.312,0,0,0-8.476,3.777c-2.291,1.877-3.142,6.806-3.842,9.093a28.172,28.172,0,0,1-2.577,6.062,15.592,15.592,0,0,0-2.625,4.558c-.718,2.173-.29,7.055-.8,8.711s-2.744,3.635-4.526,5.8-1.111,5.6-1.111,5.6l.074.39s.659.648,1.133.453c-.334-1.432-.219-3.833.811-5.083" transform="translate(-320.929 -234.203)" fill="#fff"/>
        <path id="Path_19536" data-name="Path 19536" d="M595.811,671.42a.382.382,0,0,1-.35-.535c.565-1.289,1.211-2.5,1.836-3.681,1.3-2.443,2.527-4.751,2.8-7.308.435-4.111-.612-8.069-1.626-11.9a.382.382,0,1,1,.738-.2c1.031,3.894,2.1,7.92,1.647,12.172-.286,2.7-1.548,5.076-2.883,7.586-.618,1.163-1.258,2.366-1.811,3.628a.382.382,0,0,1-.35.229" transform="translate(-495.796 -539.17)" fill="#2e2e2e"/>
        <path id="Path_19537" data-name="Path 19537" d="M525.951,364.427q-.583,0-1.2-.057a32.124,32.124,0,0,1-4.077-.748.382.382,0,0,1,.173-.744,31.448,31.448,0,0,0,3.974.732c2.82.26,5-.431,6.482-2.055a10.676,10.676,0,0,0,2.325-6.327l1-10.924a9.064,9.064,0,0,0-.6-4.208.382.382,0,0,1,.71-.282,9.818,9.818,0,0,1,.654,4.56l-1,10.923a11.4,11.4,0,0,1-2.521,6.771,7.624,7.624,0,0,1-5.915,2.359" transform="translate(-433.302 -282.752)" fill="#2e2e2e"/>
        <path id="Path_19538" data-name="Path 19538" d="M463.84,391.313c-.109,0-.218-.005-.328-.015a3.517,3.517,0,1,1,2.01-6.587.382.382,0,1,1-.367.67,2.753,2.753,0,1,0-1.573,5.157,2.7,2.7,0,0,0,1.2-.157.382.382,0,1,1,.264.717,3.474,3.474,0,0,1-1.206.215" transform="translate(-383.292 -319.978)" fill="#2e2e2e"/>
        <path id="Path_19539" data-name="Path 19539" d="M470.193,395.108h-.031a.381.381,0,0,1-.35-.411,1.926,1.926,0,0,1,.711-1.433,2.168,2.168,0,0,1,1.755-.312.382.382,0,0,1,.3.446.387.387,0,0,1-.446.3,1.436,1.436,0,0,0-1.15.168,1.216,1.216,0,0,0-.413.888.381.381,0,0,1-.38.351" transform="translate(-391.197 -327.152)" fill="#2e2e2e"/>
        <path id="Path_19540" data-name="Path 19540" d="M585.974,392.623c-.06.656.2,1.217.588,1.252s.746-.468.806-1.124-.2-1.217-.588-1.252-.746.468-.806,1.124" transform="translate(-487.916 -325.987)" fill="#2e2e2e"/>
        <path id="Path_19541" data-name="Path 19541" d="M583.17,372.494a.38.38,0,0,1-.26-.1,5.049,5.049,0,0,0-4-1.2.382.382,0,1,1-.115-.755,5.858,5.858,0,0,1,4.64,1.391.382.382,0,0,1-.26.661" transform="translate(-481.671 -308.408)" fill="#2e2e2e"/>
        <path id="Path_19542" data-name="Path 19542" d="M529.831,389.962c-.06.656-.421,1.16-.806,1.124s-.648-.6-.588-1.252.421-1.16.806-1.124.648.6.588,1.252" transform="translate(-440.007 -323.665)" fill="#2e2e2e"/>
        <path id="Path_19543" data-name="Path 19543" d="M513.848,369.655a.382.382,0,0,1-.225-.69,6.3,6.3,0,0,1,5.182-.836.382.382,0,0,1-.216.732,5.494,5.494,0,0,0-4.515.72.379.379,0,0,1-.225.074" transform="translate(-427.547 -306.341)" fill="#2e2e2e"/>
        <path id="Path_19544" data-name="Path 19544" d="M563.081,398.054a3.7,3.7,0,0,1-.775-.106c-.074-.016-.14-.03-.2-.039a.382.382,0,1,1,.121-.755c.067.011.147.028.235.047.277.059.739.156.938.013a.5.5,0,0,0,.154-.362c.049-.458-.59-1.146-1.012-1.6l-.153-.165c-.381-.418-.974-1.439-.658-3.593a.382.382,0,1,1,.756.112c-.281,1.91.232,2.71.465,2.965l.148.161c.547.589,1.3,1.4,1.212,2.2a1.206,1.206,0,0,1-.465.9,1.283,1.283,0,0,1-.77.222" transform="translate(-467.665 -325.715)" fill="#2e2e2e"/>
        <path id="Path_19545" data-name="Path 19545" d="M553.319,490.952a.382.382,0,0,1-.364-.267,17.91,17.91,0,0,1-.17-6.6.382.382,0,1,1,.755.116,17.086,17.086,0,0,0,.143,6.259.382.382,0,0,1-.364.5" transform="translate(-460.104 -402.81)" fill="#2e2e2e"/>
        <path id="Path_19546" data-name="Path 19546" d="M470.758,436.869a.358.358,0,0,1-.079-.008.382.382,0,0,1-.3-.452,69.43,69.43,0,0,0,1.657-13.993.382.382,0,0,1,.382-.381h0a.382.382,0,0,1,.381.383,70.132,70.132,0,0,1-1.674,14.148.381.381,0,0,1-.373.3" transform="translate(-391.668 -351.416)" fill="#2e2e2e"/>
        <path id="Path_19547" data-name="Path 19547" d="M488.716,339.355a.355.355,0,0,1-.057,0,.381.381,0,0,1-.321-.433c.326-2.192,2.367-3.8,4.528-5.5a16.043,16.043,0,0,0,4.106-4.064.765.765,0,0,1,.471-.4.575.575,0,0,1,.459.086c2.43,1.589,6.38,2.732,9.735,1.694a.382.382,0,1,1,.225.729c-3.762,1.163-7.834-.168-10.244-1.7a16.7,16.7,0,0,1-4.28,4.256c-2.038,1.6-3.964,3.117-4.246,5.007a.381.381,0,0,1-.377.326" transform="translate(-406.621 -273.898)" fill="#2e2e2e"/>
        <path id="Path_19548" data-name="Path 19548" d="M537.944,442.954a2.6,2.6,0,0,1-2.1-1.821c-.207-.689-.185-1.051.123-1.207.39-.2,1.293.171,2.683.557,1.015.282,2.532.318,2.577,1.084.038.659-1.392,1.837-3.284,1.386" transform="translate(-446.069 -366.268)" fill="#2e2e2e"/>
        <path id="Path_19549" data-name="Path 19549" d="M537.71,447.927a1.891,1.891,0,0,1,3.023,1.371,3.848,3.848,0,0,1-3.023-1.371" transform="translate(-447.735 -372.683)" fill="#fff"/>
        <path id="Path_19550" data-name="Path 19550" d="M536.9,440.826a3.949,3.949,0,0,1-.918-.11,2.992,2.992,0,0,1-2.376-2.082c-.117-.389-.39-1.3.316-1.657.432-.219,1.048-.036,2.065.269.271.081.568.171.893.261.248.069.527.122.806.176.937.18,2,.385,2.05,1.253a1.481,1.481,0,0,1-.631,1.139,3.484,3.484,0,0,1-2.2.751m-.741-.852a2.837,2.837,0,0,0,2.455-.484.863.863,0,0,0,.359-.509c-.016-.274-.868-.438-1.432-.547-.3-.057-.6-.116-.866-.19-.33-.092-.632-.183-.908-.265a4.416,4.416,0,0,0-1.5-.319c-.085.043-.059.326.07.756a2.225,2.225,0,0,0,1.823,1.559" transform="translate(-444.194 -363.778)" fill="#2e2e2e"/>
        <path id="Path_19551" data-name="Path 19551" d="M539.857,446.921l-.761-.073a1.2,1.2,0,0,0-.669-1.321,1.676,1.676,0,0,0-1.767.2l-.529-.55a2.423,2.423,0,0,1,2.629-.335,1.97,1.97,0,0,1,1.1,2.081" transform="translate(-446.419 -370.205)" fill="#2e2e2e"/>
        <path id="Path_19552" data-name="Path 19552" d="M609.086,831.871H593.769a3.054,3.054,0,0,0-3.054,3.054v2.22h21.033v-2.612a2.663,2.663,0,0,0-2.662-2.662" transform="translate(-491.871 -692.674)" fill="#fff"/>
        <path id="Path_19553" data-name="Path 19553" d="M610.228,835.625h-21.8v-.495a5.549,5.549,0,0,1,5.543-5.543h11.374a4.886,4.886,0,0,1,4.88,4.881Zm-21.026-.764h20.262v-.393a4.122,4.122,0,0,0-4.117-4.117H593.974a4.785,4.785,0,0,0-4.772,4.511" transform="translate(-489.969 -690.772)" fill="#2e2e2e"/>
        <path id="Path_19554" data-name="Path 19554" d="M495.611,429.839a.373.373,0,0,1-.176-.043c-1.368-.71-5.151-3.28-6.2-6.6a.382.382,0,0,1,.728-.23c.864,2.73,4.032,5.224,5.826,6.155a.382.382,0,0,1-.176.72" transform="translate(-407.355 -351.967)" fill="#2e2e2e"/>
        <path id="Path_19555" data-name="Path 19555" d="M527.4,461.987a2.991,2.991,0,0,1-1-.184,2.48,2.48,0,0,1-1.422-1.153,1.076,1.076,0,0,1-.06-.839,1.226,1.226,0,0,1,.992-.735,2.772,2.772,0,0,1,1.421.148c1.092.394,1.744,1.269,1.484,1.992h0a1.393,1.393,0,0,1-1.409.77m-1.087-2.184a1.467,1.467,0,0,0-.269.024c-.218.04-.372.131-.412.243a.347.347,0,0,0,.034.255,1.77,1.77,0,0,0,.99.759c.752.272,1.351.107,1.436-.126s-.274-.744-1.025-1.015a2.266,2.266,0,0,0-.753-.14m2.137,1.284Z" transform="translate(-437.03 -382.228)" fill="#2e2e2e"/>
        <path id="Path_19556" data-name="Path 19556" d="M532.811,632.838a.377.377,0,0,1-.121-.019.383.383,0,0,1-.242-.483,43.336,43.336,0,0,0,2.033-12.817,81.109,81.109,0,0,0-1.474-14.488.381.381,0,0,1,.309-.443.386.386,0,0,1,.443.309,81.794,81.794,0,0,1,1.486,14.628,44.137,44.137,0,0,1-2.072,13.053.383.383,0,0,1-.362.261" transform="translate(-443.337 -503.417)" fill="#2e2e2e"/>
        <path id="Path_19557" data-name="Path 19557" d="M516.463,637.67a.859.859,0,1,0-.859.859.859.859,0,0,0,.859-.859" transform="translate(-428.613 -530.253)" fill="#2e2e2e"/>
        <path id="Path_19558" data-name="Path 19558" d="M514.751,687.873a.859.859,0,1,0-.859.859.859.859,0,0,0,.859-.859" transform="translate(-427.187 -572.056)" fill="#2e2e2e"/>
        <path id="Path_19559" data-name="Path 19559" d="M510.45,737.6a.859.859,0,1,0-.644,1.03.859.859,0,0,0,.644-1.03" transform="translate(-423.624 -613.62)" fill="#2e2e2e"/>
        <path id="Path_19560" data-name="Path 19560" d="M422.243,325.084a.39.39,0,0,1-.152-.031.383.383,0,0,1-.2-.5c.765-1.759.222-3.338-.3-4.865a5.994,5.994,0,0,1-.51-3.4c.2-.792.451-1.5.689-2.177a10.374,10.374,0,0,0,.826-3.874,22.789,22.789,0,0,0-.31-3.744,29.519,29.519,0,0,1-.381-3.764,30.882,30.882,0,0,1,.313-5.163,24.108,24.108,0,0,0-.1-8.874c-.065-.255-.139-.468-.207-.667a3.628,3.628,0,0,1-.268-1.549,5.726,5.726,0,0,0-.4-2.643c-1.429-3.066-3.212-3.484-6.168-4.177-.3-.069-.606-.142-.926-.219-.684-.166-1.315-.345-1.908-.512a10.273,10.273,0,0,0-4.349-.63,13.858,13.858,0,0,0-5.293,1.762c-2.9,1.5-4.155,2.261-5.957,6.291a22.8,22.8,0,0,0-1.289,4.247,18.565,18.565,0,0,1-1.1,3.636,23.475,23.475,0,0,1-2.091,3.467,11.609,11.609,0,0,0-1.77,3.174,19.91,19.91,0,0,0-.623,5.948,9.73,9.73,0,0,1-.544,4.214,13.692,13.692,0,0,1-2.572,3.329c-2.164,2.284-4.208,4.44-2.574,8.543a.382.382,0,0,1-.71.282c-1.814-4.555.6-7.1,2.73-9.351a12.912,12.912,0,0,0,2.436-3.132,9.241,9.241,0,0,0,.471-3.881,20.546,20.546,0,0,1,.653-6.163,12.318,12.318,0,0,1,1.875-3.4,22.549,22.549,0,0,0,2.028-3.355,18.127,18.127,0,0,0,1.048-3.487,23.3,23.3,0,0,1,1.336-4.386c1.9-4.256,3.308-5.117,6.3-6.658a14.571,14.571,0,0,1,5.52-1.837,10.888,10.888,0,0,1,4.679.649c.585.165,1.207.34,1.882.5.318.077.624.149.92.219,3.071.72,5.1,1.2,6.685,4.6a6.477,6.477,0,0,1,.474,3.009,2.887,2.887,0,0,0,.227,1.256c.075.217.155.45.225.728.8,3.168.456,6.208.119,9.148a30.418,30.418,0,0,0-.31,5.035,28.922,28.922,0,0,0,.372,3.679,23.54,23.54,0,0,1,.321,3.848,11.135,11.135,0,0,1-.869,4.148c-.233.666-.474,1.355-.671,2.116a5.4,5.4,0,0,0,.493,2.959c.547,1.588,1.166,3.387.283,5.418a.383.383,0,0,1-.351.23" transform="translate(-318.681 -231.04)" fill="#2e2e2e"/>
        <path id="Path_19561" data-name="Path 19561" d="M478.562,294.561c1.06-5.085,2.516-12.6,11.273-14.518a24.8,24.8,0,0,1,5.519-.187,16.586,16.586,0,0,0-2.034-1.07c-11.546-2.269-15.44,5.616-16.572,15.339Z" transform="translate(-396.973 -231.81)" fill="#801c7d"/>
        <path id="Path_19562" data-name="Path 19562" d="M493.737,279.51c-.22-.1-.379-.178-.379-.178-11.546-2.269-15.44,5.616-16.573,15.339l.91.351c1.109-9.471,5.152-17.244,16.041-15.512" transform="translate(-397.005 -232.264)" fill="#fff"/>
        <path id="Path_19563" data-name="Path 19563" d="M476.662,292.627a.347.347,0,0,1-.078-.008.381.381,0,0,1-.3-.451c.828-3.974,2.37-11.369,9.94-14.459a10.138,10.138,0,0,1,5.22-.526l-.433-.242a9.964,9.964,0,0,0-7.031-.224c-4.931,1.924-7.8,6.875-8.757,15.137a.387.387,0,0,1-.423.335.383.383,0,0,1-.336-.423c1-8.569,4.02-13.724,9.239-15.761,2.168-.847,4.661-.768,7.617.24.063.028,1.206.668,2.318,1.3l1.956,1.107-2.212-.4c-2.909-.524-4.864-.652-6.869.165-7.2,2.937-8.682,10.074-9.482,13.907a.381.381,0,0,1-.373.3" transform="translate(-395.073 -229.337)" fill="#801c7d"/>
        <path id="Path_19564" data-name="Path 19564" d="M457.773,378.815c-.156-2.669,1.329-4.927,3.316-5.043s3.724,1.953,3.88,4.622-1.329,4.927-3.316,5.043-3.724-1.954-3.88-4.622" transform="translate(-381.165 -311.225)" fill="#801c7d"/>
        <path id="Path_19565" data-name="Path 19565" d="M458.69,379.254c-.156-2.669,1.329-4.927,3.316-5.042a2.719,2.719,0,0,1,.592.036,2.892,2.892,0,0,0-1.734-.474c-1.987.116-3.472,2.374-3.316,5.043.14,2.4,1.559,4.308,3.288,4.587a5.252,5.252,0,0,1-2.146-4.148" transform="translate(-380.977 -311.225)" fill="#fff"/>
        <path id="Path_19566" data-name="Path 19566" d="M459.591,381.925a3.612,3.612,0,0,1-2.757-1.407,6.459,6.459,0,0,1-.425-7.29,3.379,3.379,0,0,1,5.7-.333,6.457,6.457,0,0,1,.426,7.289,3.566,3.566,0,0,1-2.758,1.735c-.062,0-.123,0-.185,0m-.242-9.674h-.137a2.825,2.825,0,0,0-2.165,1.392,5.7,5.7,0,0,0,.373,6.379,2.621,2.621,0,0,0,4.477-.261,5.7,5.7,0,0,0-.373-6.379,2.87,2.87,0,0,0-2.175-1.135" transform="translate(-379.265 -309.327)" fill="#2e2e2e"/>
        <path id="Path_19567" data-name="Path 19567" d="M536.589,790.566s6.076-1.685,8.37-1.559a43.567,43.567,0,0,1,6.743.378,19.951,19.951,0,0,1,5.8,2.152c.885.613,2.1.939,2.386,1.766s.923,1.527.35,1.925-.716,1.265-1.766.883c.8,3.07-2.955.748-2.7,1.551s.609.768.054,1.068-.905,1-2.114.523a17.976,17.976,0,0,0-5.25-1.209c-1.273.064-2.864,1.177-4.073,1.464a13.722,13.722,0,0,1-3.15.764,30.955,30.955,0,0,1-4.582-.509c.032-.1-.068-9.2-.068-9.2" transform="translate(-446.801 -656.977)" fill="#fff"/>
        <path id="Path_19568" data-name="Path 19568" d="M556.921,793.954a3,3,0,0,1-.4-.028.382.382,0,0,1-.327-.43.375.375,0,0,1,.43-.327,1.555,1.555,0,0,0,1.509-.477c.169-.291.361-.62-1.139-2.12s-4.777-2.883-8.755-3.69c-4.069-.826-13.37,1.247-13.464,1.267a.381.381,0,1,1-.167-.744c.388-.088,9.546-2.13,13.783-1.272,1.978.4,6.829,1.585,9.143,3.9,1.45,1.45,1.756,2.19,1.259,3.044a2.168,2.168,0,0,1-1.87.878" transform="translate(-444.901 -654.414)" fill="#2e2e2e"/>
        <path id="Path_19569" data-name="Path 19569" d="M539.551,822.385c-1.587,0-4.364-.33-4.5-.347a.382.382,0,0,1,.091-.758,36.86,36.86,0,0,0,5.033.311,19.028,19.028,0,0,0,5.056-1.759c.389-.181.724-.337.986-.444.823-.335,2.1,0,3.714.428a27.773,27.773,0,0,0,2.926.659c.665.1.863-.094,1.01-.235a.727.727,0,0,0,.254-.689c-.193-1.091-2.426-2.514-3.522-3a8.569,8.569,0,0,0-5.581-.624.382.382,0,1,1-.112-.755,9.3,9.3,0,0,1,6,.681c.764.338,3.677,1.934,3.965,3.565a1.483,1.483,0,0,1-.477,1.372,1.737,1.737,0,0,1-1.651.439,28.015,28.015,0,0,1-3.009-.675c-1.36-.359-2.644-.7-3.23-.46-.252.1-.575.254-.951.429a19.634,19.634,0,0,1-5.274,1.823,5.552,5.552,0,0,1-.727.037" transform="translate(-445.239 -678.612)" fill="#2e2e2e"/>
        <path id="Path_19570" data-name="Path 19570" d="M312.712,566.519l-23.754-.019c-6.9.138-16.012-.436-18.977-2.5-3.557-2.479-3.579-9.4-.066-20.57,2.592-8.243,6.024-14.253,9.918-20.7,4.51-7.473,7.174-9.8,15.836-13.83,1.348-.628,5.4-2.114,5.575-2.178l.244-.089.172.2L312.225,518.7l3.757-10.08.376.178c.323.154,7.953,3.806,12.206,8.823,6.822,8.049,8.5,19.061,9.409,24.977.873,5.711,1.847,13.218,2.51,18.511a.382.382,0,0,1-.758.1c-.662-5.289-1.635-12.79-2.507-18.492-.893-5.841-2.554-16.714-9.237-24.6-3.62-4.271-9.974-7.635-11.575-8.442L312.5,520.15l-11.235-12.626c-.914.337-4.139,1.535-5.272,2.063-8.581,3.994-11.044,6.144-15.5,13.533-3.866,6.406-7.276,12.373-9.843,20.537-3.353,10.662-3.431,17.48-.225,19.714,2.634,1.837,11.2,2.515,18.532,2.366l23,.019V555.161l-24.841-1.822,3.44-12.192a.382.382,0,0,1,.735.207L288.1,552.646l24.616,1.806Z" transform="translate(-222.571 -421.854)" fill="#2e2e2e"/>
        <path id="Path_19571" data-name="Path 19571" d="M607.688,808.3a2.472,2.472,0,0,1-1.451-.437.382.382,0,0,1,.447-.619,1.867,1.867,0,0,0,2.049-.017c.057-.065.26-.483-1.41-2.382-1.316-1.5-6.165-3.229-9.74-3.045a.372.372,0,0,1-.4-.361.381.381,0,0,1,.361-.4c3.86-.2,8.9,1.65,10.354,3.3,1.142,1.3,2.1,2.61,1.407,3.393a2.284,2.284,0,0,1-1.617.566" transform="translate(-497.255 -666.99)" fill="#2e2e2e"/>
      </g>
    </g>
  </g>
</svg>
